<svg width="24" height="24" viewBox="0 0 24 24" fill="none" xmlns="http://www.w3.org/2000/svg">
<path d="M4.25895 16.5939C3.14076 14.7089 2.74916 12.4805 3.15768 10.3272C3.56621 8.1739 4.74675 6.2438 6.47764 4.89933C8.20853 3.55486 10.3707 2.8885 12.5581 3.02539C14.7455 3.16227 16.8078 4.09298 18.3575 5.64274C19.9073 7.19251 20.838 9.25472 20.9749 11.4421C21.1118 13.6296 20.4455 15.7917 19.101 17.5226C17.7565 19.2535 15.8264 20.4341 13.6732 20.8426C11.5199 21.2511 9.29149 20.8596 7.40649 19.7414L7.40651 19.7413L4.29808 20.6294C4.16947 20.6662 4.03338 20.6678 3.90391 20.6343C3.77443 20.6007 3.65628 20.5332 3.5617 20.4386C3.46713 20.344 3.39956 20.2259 3.36601 20.0964C3.33246 19.9669 3.33415 19.8308 3.37089 19.7022L4.25901 16.5938L4.25895 16.5939Z" stroke="#2B2B2B" stroke-width="2" stroke-linecap="round" stroke-linejoin="round"/>
<path d="M7.5 13.1289C8.12132 13.1289 8.625 12.6252 8.625 12.0039C8.625 11.3826 8.12132 10.8789 7.5 10.8789C6.87868 10.8789 6.375 11.3826 6.375 12.0039C6.375 12.6252 6.87868 13.1289 7.5 13.1289Z" fill="#2B2B2B"/>
<path d="M12 13.1289C12.6213 13.1289 13.125 12.6252 13.125 12.0039C13.125 11.3826 12.6213 10.8789 12 10.8789C11.3787 10.8789 10.875 11.3826 10.875 12.0039C10.875 12.6252 11.3787 13.1289 12 13.1289Z" fill="#2B2B2B"/>
<path d="M16.5 13.1289C17.1213 13.1289 17.625 12.6252 17.625 12.0039C17.625 11.3826 17.1213 10.8789 16.5 10.8789C15.8787 10.8789 15.375 11.3826 15.375 12.0039C15.375 12.6252 15.8787 13.1289 16.5 13.1289Z" fill="#2B2B2B"/>
</svg>
