<svg width="25" height="25" viewBox="0 0 25 25" fill="none" xmlns="http://www.w3.org/2000/svg">
<path d="M4.92545 17.0939C3.80726 15.2089 3.41566 12.9805 3.82419 10.8272C4.23271 8.6739 5.41326 6.7438 7.14414 5.39933C8.87503 4.05486 11.0372 3.3885 13.2246 3.52539C15.412 3.66227 17.4743 4.59298 19.024 6.14274C20.5738 7.69251 21.5045 9.75472 21.6414 11.9421C21.7783 14.1296 21.112 16.2917 19.7675 18.0226C18.423 19.7535 16.4929 20.9341 14.3397 21.3426C12.1864 21.7511 9.95799 21.3596 8.07299 20.2414L8.07301 20.2413L4.96458 21.1294C4.83598 21.1662 4.69989 21.1678 4.57041 21.1343C4.44093 21.1007 4.32278 21.0332 4.22821 20.9386C4.13363 20.844 4.06607 20.7259 4.03252 20.5964C3.99897 20.4669 4.00065 20.3308 4.0374 20.2022L4.92552 17.0938L4.92545 17.0939Z" stroke="#DEDEDE" stroke-width="2" stroke-linecap="round" stroke-linejoin="round"/>
<path d="M8.1665 13.6289C8.78782 13.6289 9.2915 13.1252 9.2915 12.5039C9.2915 11.8826 8.78782 11.3789 8.1665 11.3789C7.54518 11.3789 7.0415 11.8826 7.0415 12.5039C7.0415 13.1252 7.54518 13.6289 8.1665 13.6289Z" fill="#DEDEDE"/>
<path d="M12.6665 13.6289C13.2878 13.6289 13.7915 13.1252 13.7915 12.5039C13.7915 11.8826 13.2878 11.3789 12.6665 11.3789C12.0452 11.3789 11.5415 11.8826 11.5415 12.5039C11.5415 13.1252 12.0452 13.6289 12.6665 13.6289Z" fill="#DEDEDE"/>
<path d="M17.1665 13.6289C17.7878 13.6289 18.2915 13.1252 18.2915 12.5039C18.2915 11.8826 17.7878 11.3789 17.1665 11.3789C16.5452 11.3789 16.0415 11.8826 16.0415 12.5039C16.0415 13.1252 16.5452 13.6289 17.1665 13.6289Z" fill="#DEDEDE"/>
</svg>
