<svg width="281" height="281" viewBox="0 0 281 281" fill="none" xmlns="http://www.w3.org/2000/svg">
<g clip-path="url(#clip0_1_1544)">
<path d="M280.5 214.644H0.5V214.784H280.5V214.644Z" fill="#EBEBEB"/>
<path d="M48.4249 219.975H29.8777V220.115H48.4249V219.975Z" fill="#EBEBEB"/>
<path d="M120.155 218.458H96.3384V218.598H120.155V218.458Z" fill="#EBEBEB"/>
<path d="M63.5897 221.941H52.8433V222.081H63.5897V221.941Z" fill="#EBEBEB"/>
<path d="M252.444 224.237H243.915V224.377H252.444V224.237Z" fill="#EBEBEB"/>
<path d="M238.926 224.237H219.723V224.377H238.926V224.237Z" fill="#EBEBEB"/>
<path d="M186.325 220.205H172.98V220.345H186.325V220.205Z" fill="#EBEBEB"/>
<path d="M133.22 189.668H25.0895C24.2424 189.667 23.4305 189.329 22.832 188.73C22.2336 188.13 21.8975 187.318 21.8975 186.47V34.4696C21.9048 33.6274 22.2442 32.8221 22.8419 32.2287C23.4395 31.6352 24.2472 31.3015 25.0895 31.3H133.22C134.068 31.3 134.881 31.6369 135.481 32.2366C136.081 32.8363 136.417 33.6496 136.417 34.4976V186.47C136.417 187.319 136.081 188.132 135.481 188.732C134.881 189.331 134.068 189.668 133.22 189.668ZM25.0895 31.412C24.2795 31.4135 23.5032 31.7363 22.931 32.3096C22.3588 32.8828 22.0375 33.6597 22.0375 34.4696V186.47C22.0375 187.28 22.3588 188.057 22.931 188.631C23.5032 189.204 24.2795 189.527 25.0895 189.528H133.22C134.03 189.527 134.807 189.204 135.38 188.631C135.953 188.058 136.276 187.281 136.277 186.47V34.4696C136.276 33.6592 135.953 32.8823 135.38 32.3092C134.807 31.7361 134.03 31.4135 133.22 31.412H25.0895Z" fill="#EBEBEB"/>
<path d="M254.354 189.668H146.218C145.37 189.667 144.558 189.329 143.958 188.73C143.359 188.131 143.022 187.318 143.02 186.47V34.4696C143.029 33.6269 143.369 32.8216 143.968 32.2283C144.567 31.635 145.375 31.3015 146.218 31.3H254.354C255.195 31.303 256.001 31.6373 256.598 32.2306C257.194 32.8239 257.533 33.6284 257.54 34.4696V186.47C257.54 187.317 257.205 188.128 256.607 188.728C256.01 189.327 255.2 189.665 254.354 189.668ZM146.218 31.412C145.407 31.4135 144.63 31.7361 144.057 32.3092C143.484 32.8823 143.161 33.6592 143.16 34.4696V186.47C143.161 187.281 143.484 188.058 144.057 188.631C144.63 189.204 145.407 189.527 146.218 189.528H254.354C255.164 189.527 255.941 189.204 256.514 188.631C257.087 188.058 257.41 187.281 257.411 186.47V34.4696C257.41 33.6592 257.087 32.8823 256.514 32.3092C255.941 31.7361 255.164 31.4135 254.354 31.412H146.218Z" fill="#EBEBEB"/>
<path d="M231.623 211.766H245.097V128.65H231.623V211.766Z" fill="#F0F0F0"/>
<path d="M161.735 214.638H243.719V211.771H161.735V214.638Z" fill="#F0F0F0"/>
<path d="M231.629 128.656H160.554V211.771H231.629V128.656Z" fill="#F5F5F5"/>
<path d="M229.204 171.933H162.979V186.773H229.204V171.933Z" fill="#F0F0F0"/>
<path d="M229.204 191.359H162.979V206.199H229.204V191.359Z" fill="#F0F0F0"/>
<path d="M169.542 173.059H222.641C223.006 173.059 223.302 172.763 223.302 172.398V171.687C223.302 171.322 223.006 171.026 222.641 171.026H169.542C169.177 171.026 168.881 171.322 168.881 171.687V172.398C168.881 172.763 169.177 173.059 169.542 173.059Z" fill="#F5F5F5"/>
<path d="M169.542 192.479H222.641C223.006 192.479 223.302 192.183 223.302 191.818V191.107C223.302 190.742 223.006 190.446 222.641 190.446H169.542C169.177 190.446 168.881 190.742 168.881 191.107V191.818C168.881 192.183 169.177 192.479 169.542 192.479Z" fill="#F5F5F5"/>
<path d="M229.204 133.237H162.979V148.077H229.204V133.237Z" fill="#F0F0F0"/>
<path d="M229.204 152.506H162.979V167.346H229.204V152.506Z" fill="#F0F0F0"/>
<path d="M169.542 134.362H222.641C223.006 134.362 223.302 134.066 223.302 133.702V132.99C223.302 132.625 223.006 132.33 222.641 132.33H169.542C169.177 132.33 168.881 132.625 168.881 132.99V133.702C168.881 134.066 169.177 134.362 169.542 134.362Z" fill="#F5F5F5"/>
<path d="M169.542 153.632H222.641C223.006 153.632 223.302 153.336 223.302 152.971V152.26C223.302 151.895 223.006 151.599 222.641 151.599H169.542C169.177 151.599 168.881 151.895 168.881 152.26V152.971C168.881 153.336 169.177 153.632 169.542 153.632Z" fill="#F5F5F5"/>
<path d="M127.335 152.557H119.271V214.644H127.335V152.557Z" fill="#F0F0F0"/>
<path d="M38.6025 214.644H119.271L119.271 152.557H38.6025L38.6025 214.644Z" fill="#F5F5F5"/>
<path d="M37.9641 209.189H110.014V175.981H37.9641V209.189Z" fill="#FAFAFA"/>
<path d="M37.9641 172.465H110.014V161.534H37.9641V172.465Z" fill="#FAFAFA"/>
<g style="mix-blend-mode:multiply" opacity="0.7">
<path d="M110.568 175.987H110.014V209.195H110.568V175.987Z" fill="#E6E6E6"/>
</g>
<g style="mix-blend-mode:multiply" opacity="0.7">
<path d="M110.568 161.528H110.014V172.459H110.568V161.528Z" fill="#E6E6E6"/>
</g>
<g style="mix-blend-mode:multiply" opacity="0.7">
<path d="M127.334 155.177H38.4231V156.583H127.334V155.177Z" fill="#E6E6E6"/>
</g>
<path d="M128.281 151.706H119.271V155.766H128.281V151.706Z" fill="#F0F0F0"/>
<path d="M37.6617 155.771H119.271V151.711H37.6617V155.771Z" fill="#F5F5F5"/>
<path d="M46.9353 111.559L174.083 111.559V45.3337L46.9353 45.3337L46.9353 111.559Z" fill="#E6E6E6"/>
<path d="M38.8488 42.7576H178.961C179.158 42.7605 179.346 42.8409 179.484 42.9813C179.622 43.1217 179.7 43.3109 179.7 43.508C179.699 43.706 179.619 43.8954 179.478 44.035C179.338 44.1745 179.148 44.2528 178.95 44.2528H38.8488C38.6507 44.2528 38.4607 44.1745 38.3201 44.035C38.1796 43.8954 38.0999 43.706 38.0984 43.508C38.0984 43.309 38.1774 43.1181 38.3182 42.9774C38.4589 42.8366 38.6498 42.7576 38.8488 42.7576Z" fill="#E6E6E6"/>
<path d="M43.7321 111.559L172.583 111.559V45.3337L43.7321 45.3337V111.559Z" fill="#F0F0F0"/>
<path d="M46.9295 111.559H174.078V113.682H44.7231L46.9295 111.559Z" fill="#E6E6E6"/>
<path d="M38.3951 111.559H167.251L165.045 113.682H36.1943L38.3951 111.559Z" fill="#F0F0F0"/>
<path d="M168.103 107.085V49.8193L48.2121 49.8193V107.085H168.103Z" fill="#FAFAFA"/>
<path d="M100.913 107.079L74.6103 49.8137H62.1951L88.4983 107.079H100.913Z" fill="white"/>
<path d="M85.8327 107.079L59.5295 49.8137H54.6855L80.9887 107.079H85.8327Z" fill="white"/>
<path d="M48.7832 107.079V49.8137H48.212V107.079H48.7832Z" fill="#E6E6E6"/>
<g opacity="0.4">
<path d="M168.046 96.064H175.758V41.4136H168.046V96.064Z" fill="#F0F0F0"/>
<path d="M165.045 96.064H171.054V41.4136H165.045V96.064Z" fill="#E6E6E6"/>
<path d="M160.341 96.064H168.052V41.4136H160.341V96.064Z" fill="#F0F0F0"/>
<path d="M157.334 96.064H163.343V41.4136H157.334V96.064Z" fill="#E6E6E6"/>
<path d="M152.624 96.064H160.335V41.4136H152.624V96.064Z" fill="#F0F0F0"/>
</g>
<g opacity="0.4">
<path d="M51.0792 96.064H55.5256L55.5256 41.4136H51.0792L51.0792 96.064Z" fill="#F0F0F0"/>
<path d="M49.3544 96.064H52.8152L52.8152 41.4136H49.3544L49.3544 96.064Z" fill="#E6E6E6"/>
<path d="M46.6329 96.064H51.0793L51.0793 41.4136H46.6329L46.6329 96.064Z" fill="#F0F0F0"/>
<path d="M44.9081 96.064H48.3689L48.3689 41.4136H44.9081L44.9081 96.064Z" fill="#E6E6E6"/>
<path d="M42.192 96.064H46.6384L46.6384 41.4136H42.192L42.192 96.064Z" fill="#F0F0F0"/>
</g>
<path d="M199.311 104.654H241.468V48.2735L199.311 48.2735V104.654Z" fill="#E6E6E6"/>
<path d="M196.086 104.654H240.393V48.2735L196.086 48.2735V104.654Z" fill="#F5F5F5"/>
<path d="M236.68 51.9863H199.799V100.947H236.68V51.9863Z" fill="white"/>
<path d="M207.929 75.1423C207.929 75.1423 208.193 82.7695 218.239 82.7695C228.285 82.7695 228.554 75.1423 228.554 75.1423H207.929Z" fill="#F0F0F0"/>
<path d="M227.474 68.9432C227.477 69.4274 227.349 69.9034 227.104 70.3208C226.865 69.9031 226.52 69.5559 226.103 69.3145C225.687 69.073 225.214 68.9459 224.732 68.9459C224.251 68.9459 223.778 69.073 223.362 69.3145C222.945 69.5559 222.6 69.9031 222.361 70.3208C222.114 69.9038 221.984 69.4278 221.986 68.9432C221.986 68.2155 222.275 67.5175 222.789 67.0029C223.304 66.4883 224.002 66.1992 224.73 66.1992C225.457 66.1992 226.155 66.4883 226.67 67.0029C227.184 67.5175 227.474 68.2155 227.474 68.9432Z" fill="#F0F0F0"/>
<path d="M214.499 68.9432C214.502 69.4274 214.374 69.9034 214.129 70.3208C213.89 69.9017 213.545 69.5533 213.128 69.311C212.711 69.0686 212.237 68.941 211.754 68.941C211.272 68.941 210.798 69.0686 210.381 69.311C209.964 69.5533 209.619 69.9017 209.38 70.3208C209.169 69.9566 209.045 69.5486 209.017 69.1286C208.989 68.7086 209.057 68.2877 209.218 67.8986C209.379 67.5094 209.627 67.1625 209.943 66.8845C210.259 66.6066 210.635 66.4051 211.041 66.2957C211.448 66.1863 211.874 66.1719 212.287 66.2536C212.7 66.3353 213.089 66.5109 213.423 66.7669C213.757 67.0228 214.028 67.3522 214.214 67.7296C214.401 68.107 214.498 68.5223 214.499 68.9432Z" fill="#F0F0F0"/>
<path d="M190.446 114.219C190.567 113.354 190.531 112.474 190.34 111.621C190.169 110.802 189.904 110.005 189.55 109.246C189.388 108.862 189.201 108.487 188.99 108.126C188.795 107.759 188.58 107.402 188.346 107.057C188.106 106.715 187.893 106.351 187.641 106.015L186.862 105.018C186.607 104.678 186.332 104.353 186.039 104.044C185.759 103.719 185.479 103.389 185.194 103.075C184.583 102.465 184.018 101.81 183.39 101.194C182.763 100.578 182.164 99.9393 181.526 99.3177C180.887 98.6961 180.243 98.0689 179.644 97.3633C180.495 97.6942 181.329 98.068 182.142 98.4833C182.942 98.9222 183.718 99.4045 184.466 99.9281C184.856 100.182 185.23 100.461 185.586 100.762C185.944 101.054 186.291 101.356 186.638 101.653C187.314 102.291 187.948 102.972 188.537 103.691C189.756 105.155 190.644 106.864 191.141 108.703C191.382 109.635 191.465 110.6 191.387 111.559C191.328 112.516 191.002 113.438 190.446 114.219Z" fill="#E6E6E6"/>
<path d="M205.269 111.565C204.604 110.953 204.104 110.183 203.817 109.326C203.53 108.469 203.465 107.554 203.629 106.665C204 104.86 204.943 103.222 206.317 101.994C206.641 101.686 206.994 101.434 207.336 101.16C207.669 100.88 208.024 100.629 208.4 100.41C208.769 100.191 209.139 99.9728 209.52 99.7656C209.71 99.6648 209.889 99.5528 210.08 99.4632L210.668 99.2168C211.06 99.0544 211.452 98.8976 211.849 98.752L212.443 98.5336C212.639 98.4664 212.846 98.416 213.053 98.3656C213.869 98.153 214.695 97.9848 215.529 97.8616C214.862 98.4216 214.168 98.8528 213.485 99.3064C213.132 99.5136 212.801 99.7544 212.471 99.9896C212.141 100.225 211.805 100.449 211.469 100.667C210.78 101.082 210.192 101.608 209.542 102.05C209.225 102.273 208.923 102.518 208.641 102.784C208.349 103.036 208.036 103.26 207.767 103.529C206.671 104.502 205.807 105.707 205.236 107.057C205.166 107.223 205.111 107.396 205.073 107.572C205.034 107.746 204.978 107.919 204.939 108.098C204.876 108.468 204.848 108.843 204.855 109.218C204.861 110.018 205.001 110.811 205.269 111.565Z" fill="#E6E6E6"/>
<path d="M204.592 111.565C204.015 110.84 203.573 110.016 203.287 109.134C203.148 108.686 203.038 108.23 202.957 107.768C202.918 107.538 202.884 107.303 202.85 107.068C202.817 106.833 202.85 106.598 202.85 106.357C202.825 104.43 203.314 102.532 204.267 100.858L205.029 99.6535C205.32 99.2783 205.634 98.9255 205.942 98.5727L206.406 98.0463L206.933 97.5871C207.286 97.2791 207.644 96.9823 207.997 96.6911C208.75 96.1685 209.531 95.688 210.338 95.2519C211.165 94.8767 212.012 94.5458 212.874 94.2607C212.242 94.9327 211.581 95.5152 210.926 96.0976C210.27 96.68 209.694 97.3295 209.1 97.9343C208.826 98.2591 208.54 98.5783 208.266 98.8863L207.84 99.3511L207.476 99.8551C207.235 100.191 206.972 100.51 206.737 100.846L206.104 101.894C205.303 103.305 204.76 104.849 204.502 106.452C204.229 108.148 204.259 109.879 204.592 111.565Z" fill="#E6E6E6"/>
<path d="M191.253 112.5C191.779 110.54 192.373 108.647 192.905 106.76C193.437 104.873 193.991 103.003 194.489 101.127C194.988 99.2506 195.397 97.3578 195.761 95.4538C196.125 93.5498 196.321 91.6178 196.489 89.585C197.154 91.5221 197.467 93.5629 197.413 95.6106C197.34 97.6506 197.045 99.6767 196.533 101.653C196.014 103.613 195.316 105.521 194.45 107.354C193.597 109.193 192.523 110.921 191.253 112.5Z" fill="#E6E6E6"/>
<path d="M191.914 112.186C192.737 110.249 193.627 108.401 194.501 106.553C195.374 104.705 196.259 102.879 197.105 101.042C197.95 99.2056 198.757 97.3576 199.513 95.4816C200.269 93.6056 200.918 91.7016 201.551 89.6912C201.748 91.7962 201.595 93.9194 201.098 95.9744C200.599 98.0211 199.903 100.015 199.02 101.927C198.141 103.824 197.109 105.646 195.934 107.376C194.774 109.122 193.426 110.735 191.914 112.186Z" fill="#E6E6E6"/>
<path d="M189.332 114.6C190.57 112.92 191.846 111.296 193.112 109.689C194.378 108.082 195.649 106.502 196.881 104.901C198.113 103.299 199.317 101.675 200.47 100.018C201.624 98.36 202.71 96.6576 203.752 94.8264C203.472 96.9229 202.847 98.9587 201.904 100.852C200.958 102.735 199.833 104.522 198.544 106.189C197.261 107.84 195.847 109.385 194.316 110.809C192.799 112.252 191.128 113.523 189.332 114.6Z" fill="#E6E6E6"/>
<path d="M193.213 111.833C194.422 110.316 195.637 108.882 196.83 107.432C198.023 105.981 199.177 104.542 200.302 103.075C201.428 101.608 202.481 100.101 203.505 98.5559C204.53 97.0103 205.421 95.3919 206.389 93.6951C206.247 95.6444 205.767 97.5542 204.973 99.3399C204.174 101.121 203.17 102.803 201.982 104.352C200.802 105.889 199.472 107.305 198.012 108.58C196.565 109.874 194.951 110.969 193.213 111.833Z" fill="#E6E6E6"/>
<path d="M190.116 113.62C190.809 112.231 191.14 110.69 191.079 109.14C190.987 107.674 190.607 106.241 189.959 104.923L189.746 104.408L189.472 103.91L188.912 102.907C188.492 102.269 188.106 101.597 187.669 100.942C187.232 100.286 186.784 99.6367 186.319 98.9815C185.854 98.3263 185.367 97.6767 184.936 96.9431C185.67 97.3377 186.379 97.7772 187.058 98.2591C187.721 98.7639 188.354 99.308 188.951 99.8887C189.253 100.183 189.536 100.498 189.797 100.83C190.066 101.154 190.357 101.485 190.592 101.821L191.275 102.913C191.382 103.098 191.494 103.282 191.6 103.473L191.863 104.066C192.046 104.465 192.203 104.874 192.334 105.293C192.446 105.718 192.563 106.144 192.653 106.575C192.742 107.006 192.748 107.466 192.776 107.908C192.804 108.35 192.731 108.81 192.686 109.246C192.582 110.113 192.299 110.948 191.857 111.701C191.415 112.453 190.822 113.107 190.116 113.62Z" fill="#E6E6E6"/>
<path d="M191.292 111.576C191.817 110.006 192.174 108.384 192.356 106.738C192.531 105.203 192.417 103.65 192.02 102.157C191.827 101.423 191.553 100.713 191.202 100.04C191.045 99.6873 190.821 99.3681 190.642 99.0265C190.463 98.6849 190.222 98.3601 189.976 98.0521C188.961 96.7348 187.853 95.4921 186.661 94.3337C188.361 94.8374 189.92 95.731 191.213 96.9433C191.885 97.565 192.469 98.2753 192.949 99.0545C193.192 99.4488 193.409 99.8584 193.599 100.281C193.782 100.711 193.937 101.152 194.064 101.603C194.543 103.395 194.515 105.285 193.985 107.063C193.497 108.776 192.568 110.332 191.292 111.576Z" fill="#E6E6E6"/>
<path d="M194.394 110.075L204.317 100.55L203.92 109.89L194.394 110.075Z" fill="#E6E6E6"/>
<path d="M183.542 109.062H209.912L206.462 128.656H186.997L183.542 109.062Z" fill="#F5F5F5"/>
<path d="M200.017 109.062H209.912L206.462 128.656H201.26L200.017 109.062Z" fill="#EBEBEB"/>
<path d="M140.5 239.934C200.466 239.934 249.078 237.095 249.078 233.594C249.078 230.093 200.466 227.255 140.5 227.255C80.5338 227.255 31.9216 230.093 31.9216 233.594C31.9216 237.095 80.5338 239.934 140.5 239.934Z" fill="#F5F5F5"/>
<path d="M220.018 220.317L219.599 223.324L220.154 223.401L220.572 220.395L220.018 220.317Z" fill="#1B1B1B"/>
<path d="M222.254 204.192L220.541 216.505L221.095 216.582L222.808 204.269L222.254 204.192Z" fill="#1B1B1B"/>
<path d="M221.7 198.102H187.988L191.46 223.122C191.841 225.877 193.207 228.4 195.303 230.226C197.4 232.052 200.087 233.057 202.867 233.057H206.821C209.601 233.057 212.288 232.052 214.385 230.226C216.482 228.4 217.847 225.877 218.228 223.122L221.7 198.102Z" fill="#1B1B1B"/>
<path d="M204.816 200.039C214.125 200.039 221.672 199.172 221.672 198.102C221.672 197.032 214.125 196.164 204.816 196.164C195.507 196.164 187.96 197.032 187.96 198.102C187.96 199.172 195.507 200.039 204.816 200.039Z" fill="#263238"/>
<path d="M210.158 187.607C200.168 185.496 203.998 165.504 210.629 150.602C217.349 135.527 221.571 132.419 226.622 132.89C231.791 133.377 225.9 150.339 223.369 160.811C220.838 171.283 221.75 190.06 210.158 187.607Z" fill="#1B1B1B"/>
<path opacity="0.4" d="M210.158 187.607C200.168 185.496 203.998 165.504 210.629 150.602C217.349 135.527 221.571 132.419 226.622 132.89C231.791 133.377 225.9 150.339 223.369 160.811C220.838 171.283 221.75 190.06 210.158 187.607Z" fill="white"/>
<path d="M209.38 198.65C209.316 198.65 209.255 198.625 209.21 198.58C209.165 198.535 209.139 198.474 209.139 198.41C209.246 180.618 213.619 154.511 221.459 141.183C221.492 141.127 221.546 141.086 221.609 141.069C221.672 141.052 221.739 141.061 221.795 141.094C221.849 141.127 221.888 141.18 221.904 141.242C221.919 141.304 221.91 141.369 221.879 141.424C214.067 154.685 209.738 180.68 209.638 198.41C209.637 198.443 209.63 198.475 209.616 198.505C209.603 198.535 209.583 198.562 209.559 198.584C209.535 198.607 209.507 198.624 209.476 198.636C209.446 198.647 209.413 198.652 209.38 198.65Z" fill="#263238"/>
<path d="M209.229 169.62C207.392 170.908 205.471 171.104 204.301 172.353C203.506 179.375 204.53 185.132 208.568 187.087C210.08 185.563 210.382 175.444 209.229 169.62Z" fill="#263238"/>
<path d="M209.134 159.036C208.792 169.81 213.541 187.994 201.691 187.966C191.477 187.966 191.113 167.604 194.574 151.65C198.079 135.522 202.845 127.682 207.885 127.11C209.94 126.881 210.606 130.179 210.646 134.917C207.319 135.191 206.446 135.975 206.446 135.975C207.857 136.226 209.254 136.555 210.629 136.961C210.5 143.966 209.318 153.139 209.134 159.036Z" fill="#1B1B1B"/>
<path d="M196.214 192.087C202.811 190.01 198.947 176.783 193.487 167.167C187.971 157.44 184.93 155.615 181.554 156.264C178.177 156.914 183.178 167.979 185.563 174.879C187.949 181.778 188.554 194.495 196.214 192.087Z" fill="#1B1B1B"/>
<path opacity="0.4" d="M196.214 192.087C202.811 190.01 198.947 176.783 193.487 167.167C187.971 157.44 184.93 155.615 181.554 156.264C178.177 156.914 183.178 167.979 185.563 174.879C187.949 181.778 188.554 194.495 196.214 192.087Z" fill="white"/>
<path d="M197.43 199.563C197.37 199.562 197.313 199.539 197.268 199.499C197.224 199.459 197.196 199.404 197.189 199.345C195.968 187.406 191.365 170.18 185.244 161.78C185.225 161.754 185.211 161.724 185.203 161.693C185.196 161.662 185.194 161.629 185.2 161.597C185.205 161.565 185.217 161.535 185.234 161.508C185.251 161.48 185.274 161.457 185.3 161.438C185.326 161.419 185.355 161.405 185.386 161.398C185.417 161.39 185.449 161.389 185.48 161.394C185.512 161.4 185.542 161.411 185.568 161.428C185.595 161.445 185.618 161.468 185.636 161.494C191.796 169.984 196.444 187.316 197.671 199.317C197.675 199.348 197.673 199.38 197.665 199.411C197.657 199.442 197.642 199.47 197.622 199.495C197.602 199.52 197.577 199.54 197.549 199.555C197.52 199.569 197.489 199.578 197.458 199.58L197.43 199.563Z" fill="#263238"/>
<path d="M203.153 198.942C203.096 198.943 203.041 198.924 202.997 198.888C202.953 198.852 202.923 198.802 202.912 198.746C199.373 181.313 198.287 154.87 203.248 140.209C203.27 140.149 203.314 140.099 203.372 140.071C203.429 140.043 203.495 140.038 203.556 140.058C203.586 140.068 203.614 140.084 203.639 140.105C203.663 140.126 203.682 140.151 203.696 140.18C203.71 140.209 203.719 140.24 203.72 140.272C203.722 140.304 203.718 140.336 203.707 140.366C198.774 154.926 199.86 181.274 203.388 198.65C203.395 198.682 203.395 198.714 203.389 198.745C203.383 198.777 203.371 198.807 203.353 198.833C203.335 198.86 203.312 198.883 203.286 198.9C203.259 198.918 203.229 198.93 203.198 198.936L203.153 198.942Z" fill="#263238"/>
<path d="M216.761 152.736C216.719 152.735 216.677 152.724 216.64 152.703C216.603 152.683 216.571 152.654 216.548 152.618C216.516 152.562 216.508 152.496 216.523 152.434C216.539 152.371 216.578 152.317 216.632 152.282C219.096 150.815 222.646 150.692 222.792 150.686C222.85 150.695 222.903 150.725 222.942 150.769C222.98 150.814 223.001 150.871 223.001 150.93C223.001 150.989 222.98 151.046 222.942 151.09C222.903 151.135 222.85 151.165 222.792 151.173C222.758 151.173 219.219 151.297 216.867 152.702C216.835 152.721 216.798 152.733 216.761 152.736Z" fill="#263238"/>
<path d="M213.031 166.562C212.98 166.562 212.931 166.545 212.89 166.515C212.849 166.485 212.818 166.443 212.802 166.394C212.229 164.74 211.853 163.024 211.682 161.282C211.68 161.25 211.685 161.218 211.696 161.189C211.706 161.159 211.723 161.131 211.744 161.108C211.766 161.085 211.791 161.066 211.82 161.052C211.849 161.039 211.88 161.031 211.911 161.03C211.943 161.027 211.975 161.032 212.005 161.042C212.035 161.052 212.063 161.069 212.087 161.09C212.11 161.112 212.129 161.138 212.142 161.167C212.155 161.196 212.163 161.227 212.163 161.259C212.347 162.956 212.723 164.626 213.283 166.238C213.303 166.299 213.298 166.365 213.27 166.422C213.242 166.48 213.192 166.524 213.132 166.546L213.031 166.562Z" fill="#263238"/>
<path d="M63.4663 83.1113H61.6799V232.217H63.4663V83.1113Z" fill="#1B1B1B"/>
<path d="M61.736 133.259C61.4201 133.258 61.1176 133.132 60.8942 132.908C60.6708 132.685 60.5447 132.382 60.5432 132.066C60.5432 131.75 60.6689 131.447 60.8926 131.223C61.1163 130.999 61.4197 130.874 61.736 130.874C61.8931 130.873 62.0488 130.903 62.1942 130.963C62.3396 131.022 62.4717 131.11 62.5831 131.221C62.6944 131.332 62.7828 131.464 62.8431 131.609C62.9034 131.754 62.9344 131.909 62.9344 132.066C62.9329 132.383 62.806 132.687 62.5814 132.91C62.3568 133.134 62.0529 133.259 61.736 133.259Z" fill="#1B1B1B"/>
<path d="M69.4416 233.057H55.6936C55.6936 232.611 55.8706 232.184 56.1857 231.869C56.5007 231.554 56.928 231.377 57.3736 231.377H67.756C68.2016 231.377 68.6289 231.554 68.9439 231.869C69.259 232.184 69.436 232.611 69.436 233.057H69.4416Z" fill="#1B1B1B"/>
<path d="M75.4002 116.571H49.741C49.4188 116.567 49.1012 116.494 48.81 116.356C48.5187 116.218 48.2607 116.019 48.0533 115.773C47.846 115.526 47.6944 115.238 47.6087 114.927C47.523 114.616 47.5054 114.291 47.557 113.973L52.3842 86.0848C52.4769 85.5705 52.7465 85.1049 53.1464 84.7684C53.5463 84.432 54.0512 84.2459 54.5738 84.2424H70.5674C71.089 84.2472 71.5926 84.4338 71.9913 84.7702C72.39 85.1065 72.6588 85.5715 72.7514 86.0848L77.5842 113.973C77.6357 114.291 77.6181 114.616 77.5324 114.927C77.4468 115.238 77.2951 115.526 77.0878 115.773C76.8805 116.019 76.6224 116.218 76.3311 116.356C76.0399 116.494 75.7223 116.567 75.4002 116.571Z" fill="#1B1B1B"/>
<path opacity="0.6" d="M75.4002 116.571H49.741C49.4188 116.567 49.1012 116.494 48.81 116.356C48.5187 116.218 48.2607 116.019 48.0533 115.773C47.846 115.526 47.6944 115.238 47.6087 114.927C47.523 114.616 47.5054 114.291 47.557 113.973L52.3842 86.0848C52.4769 85.5705 52.7465 85.1049 53.1464 84.7684C53.5463 84.432 54.0512 84.2459 54.5738 84.2424H70.5674C71.089 84.2472 71.5926 84.4338 71.9913 84.7702C72.39 85.1065 72.6588 85.5715 72.7514 86.0848L77.5842 113.973C77.6357 114.291 77.6181 114.616 77.5324 114.927C77.4468 115.238 77.2951 115.526 77.0878 115.773C76.8805 116.019 76.6224 116.218 76.3311 116.356C76.0399 116.494 75.7223 116.567 75.4002 116.571Z" fill="white"/>
<path d="M144.487 37.2471L145.288 36.6311C145.632 36.368 146.064 36.2444 146.495 36.2849C146.927 36.3254 147.328 36.5269 147.617 36.8495L149.001 38.3839C149.233 38.6439 149.381 38.968 149.426 39.3137C149.471 39.6595 149.411 40.0107 149.253 40.3215L148.9 41.0607C148.659 41.5286 148.308 41.9308 147.876 42.2323C147.445 42.5338 146.947 42.7256 146.425 42.7911L144.185 43.0767C143.601 43.1512 143.008 43.0932 142.449 42.907C141.891 42.7209 141.381 42.4114 140.959 42.0015L140.433 41.4975C141.446 39.0727 144.487 37.2471 144.487 37.2471Z" fill="#FFC3BD"/>
<path d="M118.178 73.3952L118.217 72.628L118.262 71.928C118.301 71.4688 118.352 71.0096 118.402 70.556C118.503 69.6488 118.643 68.7528 118.794 67.8512C119.106 66.0545 119.517 64.2766 120.026 62.5256C120.536 60.7493 121.164 59.0093 121.908 57.3176C122.655 55.5815 123.548 53.9122 124.579 52.328C124.92 51.8093 125.304 51.3204 125.727 50.8664C126.085 50.4688 126.438 50.1328 126.791 49.8024C127.485 49.1584 128.18 48.5704 128.869 48.0048C130.252 46.8848 131.669 45.8488 133.08 44.8408C135.904 42.8499 138.827 41.0033 141.838 39.308C142.25 39.0773 142.732 39.0044 143.193 39.1028C143.655 39.2012 144.065 39.4642 144.347 39.8428C144.628 40.2213 144.763 40.6895 144.725 41.1599C144.687 41.6304 144.479 42.0709 144.14 42.3992C141.715 44.7512 139.217 47.0528 136.804 49.3544C135.594 50.4744 134.407 51.6672 133.27 52.8152C132.71 53.3752 132.15 53.9688 131.669 54.5344C131.433 54.8144 131.198 55.0944 131.008 55.3464C130.864 55.5209 130.736 55.7084 130.627 55.9064C129.24 58.6374 128.187 61.5254 127.491 64.508C127.121 66.0256 126.808 67.5712 126.556 69.128C126.427 69.9064 126.321 70.6848 126.22 71.4632L126.085 72.628L126.024 73.188L125.979 73.6976V73.8936C125.882 74.905 125.393 75.8383 124.616 76.494C123.84 77.1497 122.838 77.4758 121.825 77.4027C120.811 77.3296 119.867 76.863 119.193 76.1027C118.519 75.3423 118.169 74.3485 118.217 73.3336L118.178 73.3952Z" fill="#FFC3BD"/>
<path d="M152.904 54.8199C162.469 62.8895 149.852 70.3879 158.75 79.0287C167.649 87.6695 174.313 93.8967 167.016 102.588C161.142 109.582 143.81 113.121 130.991 101.759C118.173 90.3967 138.092 82.2823 128.891 75.4951C119.69 68.7079 131.355 53.6047 134.715 52.2495C134.458 44.9023 149.751 43.9055 152.904 54.8199Z" fill="#263238"/>
<path d="M175.59 100.678C175.549 100.686 175.507 100.686 175.466 100.678C169.598 97.8782 168.618 93.471 167.671 89.1982C166.77 85.1382 165.846 80.9382 160.867 77.7518C153.537 73.059 155.043 68.7582 156.387 64.9614C157.647 61.3606 158.739 58.2414 152.512 55.1558C152.445 55.1221 152.393 55.0632 152.369 54.9919C152.345 54.9206 152.35 54.8427 152.383 54.775C152.419 54.7083 152.479 54.6578 152.551 54.6339C152.623 54.6099 152.701 54.6144 152.77 54.6462C159.445 57.967 158.224 61.4558 156.93 65.1518C155.637 68.8478 154.242 72.8182 161.192 77.2702C166.366 80.5854 167.324 84.8974 168.248 89.075C169.206 93.4038 170.113 97.475 175.73 100.157C175.798 100.19 175.85 100.249 175.876 100.32C175.901 100.391 175.897 100.47 175.864 100.538C175.837 100.586 175.797 100.624 175.748 100.649C175.699 100.674 175.644 100.684 175.59 100.678Z" fill="#263238"/>
<path d="M108.961 99.3904C108.961 99.3904 101.003 123.902 96.4336 141.452C95.8734 143.609 95.5985 145.831 95.616 148.06C95.7896 166.114 96.176 202.055 96.176 202.055L100.471 202.643C100.471 202.643 111.022 163.443 108.406 148.726C123.302 122.188 127.76 108.513 127.76 108.513L108.961 99.3904Z" fill="#263238"/>
<path opacity="0.2" d="M115.978 119.948L120.099 126.382C118.408 129.918 116.366 133.963 113.973 138.518C114.281 133.177 113.79 127.82 112.517 122.625L115.978 119.948Z" fill="black"/>
<path d="M111.66 114.18C109.722 117.826 110.585 121.964 112.494 125.621C116.145 132.604 124.573 144.241 128.695 155.049C132.195 164.233 168.729 180.966 172.795 184.337L175.78 181.38C175.78 181.38 151.14 153.061 140.752 151.274C137.733 115.922 127.267 106.525 127.267 106.525C119.937 105.186 114.913 108.065 111.66 114.18Z" fill="#263238"/>
<path d="M177.835 180.736C176.53 180.411 175.388 179.291 173.215 177.376C173.129 177.297 173.025 177.24 172.912 177.21C172.8 177.181 172.681 177.179 172.567 177.205C172.454 177.232 172.348 177.286 172.26 177.362C172.172 177.439 172.104 177.536 172.062 177.645C171.464 179.269 170.714 180.833 169.822 182.315C169.718 182.464 169.675 182.646 169.7 182.826C169.725 183.005 169.816 183.169 169.956 183.284C175.091 187.506 174.436 188.38 174.66 190.166C174.957 192.362 173.977 196.427 175.556 196.035C177.796 195.475 179.123 192.63 178.966 190.34C178.832 188.386 179.017 186.039 179.61 184.578C180.126 183.34 179.7 181.206 177.835 180.736Z" fill="#1B1B1B"/>
<path d="M102.14 204.491C101.58 203.175 101.58 202.105 103.182 197.334C103.217 197.235 103.229 197.129 103.219 197.025C103.209 196.92 103.176 196.819 103.123 196.728C103.07 196.637 102.997 196.559 102.911 196.5C102.824 196.44 102.725 196.4 102.622 196.382C101.037 196.158 97.6657 195.733 95.9017 195.901C95.8056 195.908 95.7121 195.935 95.6266 195.98C95.5411 196.024 95.4653 196.085 95.4037 196.159C95.3422 196.233 95.296 196.319 95.2681 196.411C95.2401 196.503 95.2308 196.6 95.2409 196.696C95.5937 200.285 93.6673 206.412 89.4169 209.262C87.6025 210.477 88.8289 211.502 90.4193 211.256C93.0177 210.892 94.7537 209.509 96.7417 208.456C98.0073 207.778 99.3793 207.997 100.858 207.515C101.161 207.429 101.441 207.277 101.678 207.068C101.914 206.86 102.101 206.601 102.224 206.311C102.347 206.02 102.404 205.706 102.389 205.391C102.375 205.076 102.289 204.769 102.14 204.491Z" fill="#1B1B1B"/>
<path d="M117.411 74.6776C116.554 76.6656 111.29 79.6784 113.821 84.1304C112.36 88.2856 111.021 92.4296 108.961 99.3904L128.773 109.006C130.666 103.025 133.925 96.7528 142.645 85.4856C143.121 84.8679 143.462 84.1569 143.645 83.399C143.829 82.641 143.851 81.8529 143.711 81.0857C143.57 80.3186 143.27 79.5895 142.83 78.9457C142.39 78.302 141.819 77.7579 141.155 77.3488C140.405 76.884 139.598 76.408 138.758 75.9544C135.869 74.2866 132.863 72.8287 129.765 71.592C128.751 71.2056 127.687 70.8416 126.662 70.5112C124.878 69.9362 122.944 70.044 121.235 70.8138C119.526 71.5836 118.163 72.9605 117.411 74.6776Z" fill="#1B1B1B"/>
<path d="M129.765 71.5697C127.424 70.5729 125.43 66.7425 126.371 63.6121C123.146 63.8193 119.343 65.8521 118.016 68.8089C117.49 71.8329 117.456 77.8473 117.456 77.8473L129.765 71.5697Z" fill="#1B1B1B"/>
<path d="M186.7 79.8744L187.512 79.2752C187.859 79.0153 188.096 78.6342 188.175 78.2076C188.254 77.781 188.169 77.3404 187.938 76.9736L186.818 75.2264C186.632 74.9306 186.36 74.6984 186.039 74.5604C185.718 74.4224 185.363 74.3851 185.02 74.4536L184.208 74.6104C183.692 74.7139 183.209 74.942 182.801 75.2748C182.393 75.6076 182.072 76.035 181.867 76.52L180.982 78.5864C180.752 79.1271 180.645 79.7129 180.671 80.3004C180.698 80.8878 180.856 81.4619 181.134 81.98L181.481 82.624C184.113 82.2992 186.7 79.8744 186.7 79.8744Z" fill="#FFC3BD"/>
<path d="M140.5 78.5584L150.983 79.6784C152.725 79.852 154.467 80.0424 156.191 80.1936L158.762 80.3952C159.596 80.4568 160.515 80.5072 161.086 80.5016C162.637 80.4344 164.446 80.2776 166.154 80.0928L171.418 79.5328C174.946 79.1576 178.502 78.7824 182.058 78.5136C182.532 78.4768 183.003 78.6153 183.382 78.9027C183.761 79.1901 184.022 79.6066 184.114 80.0732C184.207 80.5398 184.125 81.0241 183.884 81.4343C183.643 81.8446 183.261 82.1524 182.808 82.2992C179.37 83.4192 175.915 84.3712 172.42 85.2392C170.673 85.676 168.915 86.0792 167.134 86.46C165.353 86.8408 163.595 87.1936 161.595 87.4288C160.38 87.5408 159.518 87.5464 158.571 87.5632C157.625 87.58 156.712 87.5632 155.771 87.5632C153.94 87.524 152.12 87.4568 150.311 87.3392C146.683 87.1152 143.115 86.7792 139.509 86.2752C138.572 86.0525 137.75 85.4926 137.199 84.7024C136.649 83.9122 136.408 82.947 136.524 81.9909C136.64 81.0348 137.103 80.1547 137.826 79.5186C138.549 78.8824 139.481 78.5346 140.444 78.5416L140.5 78.5584Z" fill="#FFC3BD"/>
<path d="M130.896 104.016C131.747 104.576 129.72 108.149 130.493 109.616C131.266 111.083 131.613 111.856 130.907 112.058C130.202 112.259 115.922 109.342 108.098 103.422C107.955 103.308 107.842 103.161 107.768 102.993C107.695 102.825 107.664 102.642 107.678 102.459C107.914 99.3567 109.358 95.1511 110.254 95.0895C111.15 95.0279 127.743 101.978 130.896 104.016Z" fill="#1B1B1B"/>
<path opacity="0.4" d="M130.896 104.016C131.747 104.576 129.72 108.149 130.493 109.616C131.266 111.083 131.613 111.856 130.907 112.058C130.202 112.259 115.922 109.342 108.098 103.422C107.955 103.308 107.842 103.161 107.768 102.993C107.695 102.825 107.664 102.642 107.678 102.459C107.914 99.3567 109.358 95.1511 110.254 95.0895C111.15 95.0279 127.743 101.978 130.896 104.016Z" fill="white"/>
<path d="M142.785 65.3704C140.814 67.9856 137.672 73.0144 138.758 75.932C138.758 75.932 131.68 73.7816 124.758 77.612C125.122 71.8664 129.742 71.5472 129.742 71.5472C133.343 72.3368 134.424 69.9064 134.95 67.3808L142.785 65.3704Z" fill="#FFC3BD"/>
<path opacity="0.2" d="M139.598 66.1992L134.978 67.4032C134.864 67.9937 134.697 68.5728 134.48 69.1336C135.802 69.5536 138.148 69.0216 138.91 67.7952C139.235 67.3096 139.468 66.7688 139.598 66.1992Z" fill="black"/>
<path d="M148.054 62.1335C144.638 66.2943 143.339 68.6183 139.509 68.7975C132.957 69.0999 130.549 63.7575 132.178 59.8991C134.127 55.3407 138.898 49.0855 144.314 50.3791C149.729 51.6727 151.465 57.9727 148.054 62.1335Z" fill="#FFC3BD"/>
<path d="M138.876 49.0183C139.173 52.2495 145.07 56.7575 146.946 57.8215C144.459 59.0087 143.35 64.3119 147.858 64.7599C152.366 65.2079 156.359 46.9183 138.876 49.0183Z" fill="#263238"/>
<path d="M134.049 59.4119C134.049 59.4119 135.818 59.8095 140.332 61.8647C139.212 62.8279 137.739 63.3655 135.432 62.2959C133.125 61.2263 134.049 59.4119 134.049 59.4119Z" fill="#263238"/>
<path d="M136.972 61.8368C136.11 61.3898 135.139 61.1956 134.172 61.2768C134.487 61.7313 134.926 62.0852 135.437 62.296C136.297 62.7487 137.27 62.9432 138.237 62.856C137.926 62.3986 137.485 62.044 136.972 61.8368Z" fill="#ED847E"/>
<path d="M134.267 59.4678C134.244 59.6451 134.27 59.8254 134.343 59.9886C134.416 60.1518 134.534 60.2914 134.682 60.3918C136.023 60.9979 137.409 61.5033 138.826 61.9038C139.039 61.9863 139.268 62.0177 139.496 61.9953C139.724 61.9729 139.943 61.8975 140.136 61.775C138.236 60.8692 136.275 60.0983 134.267 59.4678Z" fill="white"/>
<path d="M137.829 55.9399C136.93 56.5179 135.955 56.9701 134.934 57.2839C135.085 58.0623 136.02 58.4375 136.02 58.4375L137.829 55.9399Z" fill="#ED847E"/>
<path d="M146.694 66.2663C146.274 66.5105 145.808 66.6633 145.326 66.7144C144.843 66.7656 144.355 66.714 143.894 66.5631C142.729 66.1375 143.015 64.7263 144.067 63.8471C145.014 63.0519 146.755 62.3239 147.573 63.2367C148.391 64.1495 147.831 65.6391 146.694 66.2663Z" fill="#FFC3BD"/>
<path d="M142.818 58.0119C142.805 57.9801 142.797 57.9458 142.797 57.9111C142.797 57.8764 142.805 57.8421 142.818 57.8103C142.958 57.5154 143.023 57.1912 143.01 56.8654C142.996 56.5397 142.903 56.2221 142.74 55.9399C142.704 55.8832 142.691 55.8146 142.705 55.7487C142.718 55.6827 142.757 55.6247 142.813 55.5871C142.84 55.5673 142.871 55.5533 142.904 55.546C142.937 55.5386 142.971 55.5381 143.004 55.5444C143.037 55.5507 143.068 55.5637 143.096 55.5826C143.124 55.6015 143.148 55.6259 143.166 55.6543C143.374 56.0052 143.495 56.401 143.518 56.8083C143.541 57.2157 143.467 57.6227 143.3 57.9951C143.273 58.0572 143.223 58.1061 143.16 58.1312C143.097 58.1564 143.026 58.1558 142.964 58.1295C142.933 58.1212 142.904 58.1065 142.879 58.0862C142.854 58.0659 142.833 58.0406 142.818 58.0119Z" fill="#263238"/>
<path d="M140.713 58.1799C140.678 58.146 140.658 58.0997 140.657 58.0511C140.663 57.8255 140.616 57.6016 140.519 57.398C140.421 57.1944 140.277 57.0171 140.097 56.8807C140.059 56.8536 140.033 56.8126 140.024 56.7666C140.016 56.7206 140.026 56.6731 140.052 56.6343C140.064 56.6143 140.081 56.5971 140.1 56.5837C140.119 56.5703 140.141 56.561 140.164 56.5563C140.187 56.5515 140.211 56.5516 140.234 56.5563C140.257 56.5611 140.279 56.5704 140.298 56.5839C140.524 56.7547 140.705 56.9771 140.827 57.2323C140.949 57.4876 141.007 57.7684 140.998 58.0511C140.997 58.0991 140.977 58.1447 140.942 58.1781C140.908 58.2116 140.862 58.2303 140.814 58.2303C140.775 58.2252 140.74 58.2074 140.713 58.1799Z" fill="#263238"/>
<path d="M137.168 55.0383C137.144 55.0404 137.119 55.0375 137.096 55.0298C137.073 55.022 137.052 55.0097 137.034 54.9935C136.867 54.844 136.668 54.7358 136.452 54.6774C136.236 54.619 136.009 54.6122 135.79 54.6575C135.768 54.6644 135.745 54.6668 135.722 54.6646C135.699 54.6623 135.677 54.6556 135.656 54.6446C135.636 54.6337 135.618 54.6187 135.604 54.6008C135.589 54.5828 135.578 54.5621 135.572 54.5399C135.558 54.4946 135.562 54.4456 135.585 54.4036C135.607 54.3616 135.644 54.3301 135.69 54.3159C135.965 54.2519 136.253 54.2556 136.527 54.3268C136.801 54.398 137.053 54.5345 137.263 54.7247C137.296 54.7583 137.315 54.8035 137.315 54.8507C137.315 54.8979 137.296 54.9432 137.263 54.9767C137.238 55.0059 137.205 55.0273 137.168 55.0383Z" fill="#263238"/>
<path d="M137.09 52.3393C137.059 52.3284 137.03 52.3114 137.006 52.2893C136.982 52.2671 136.963 52.2403 136.95 52.2105C136.923 52.1479 136.921 52.0774 136.945 52.0137C136.969 51.95 137.017 51.8981 137.078 51.8689C137.445 51.6903 137.849 51.6027 138.256 51.6134C138.664 51.6241 139.063 51.7329 139.419 51.9305C139.477 51.9663 139.518 52.0235 139.534 52.0896C139.55 52.1557 139.539 52.2253 139.503 52.2833C139.466 52.3413 139.408 52.3826 139.341 52.3983C139.274 52.414 139.204 52.4029 139.145 52.3673C138.861 52.2142 138.544 52.1317 138.221 52.1269C137.899 52.122 137.58 52.1948 137.291 52.3393C137.259 52.3531 137.225 52.3603 137.19 52.3603C137.156 52.3603 137.121 52.3531 137.09 52.3393Z" fill="#263238"/>
<path opacity="0.2" d="M121.706 83.7046C122.873 86.5985 124.969 89.0218 127.665 90.5926C122.849 89.663 121.55 85.8494 121.706 83.7046Z" fill="black"/>
<path d="M138.758 75.9319C141.357 77.6623 148.497 78.3063 150.871 78.4743C150.95 78.4761 151.028 78.4996 151.094 78.5423C151.161 78.585 151.214 78.6452 151.249 78.7163C151.284 78.7875 151.298 78.8668 151.291 78.9456C151.284 79.0244 151.255 79.0996 151.207 79.1631C150.132 80.2831 146.621 85.2447 146.481 87.7311C146.466 87.9808 146.371 88.219 146.21 88.4099C146.048 88.6008 145.829 88.7341 145.585 88.7895C138.686 90.2959 135.538 89.4783 134.245 87.6975C132.89 85.8327 138.758 75.9319 138.758 75.9319Z" fill="#1B1B1B"/>
</g>
<defs>
<clipPath id="clip0_1_1544">
<rect width="280" height="280" fill="white" transform="translate(0.5 0.5)"/>
</clipPath>
</defs>
</svg>
