<svg width="25" height="24" viewBox="0 0 25 24" fill="none" xmlns="http://www.w3.org/2000/svg">
<g clip-path="url(#clip0_1_1407)">
<path d="M24.4946 12.2249C24.4946 11.2416 24.413 10.5241 24.2362 9.78003H12.7451V14.218H19.4901C19.3542 15.3209 18.6199 16.9819 16.988 18.098L16.9651 18.2465L20.5984 20.9967L20.8501 21.0213C23.1619 18.9351 24.4946 15.8657 24.4946 12.2249Z" fill="#F5F5F5"/>
<path d="M12.7451 23.9176C16.0496 23.9176 18.8238 22.8545 20.8501 21.0209L16.988 18.0976C15.9545 18.8018 14.5673 19.2934 12.7451 19.2934C9.50859 19.2934 6.76162 17.2074 5.7824 14.324L5.63887 14.3359L1.86093 17.1927L1.81152 17.3269C3.82415 21.2334 7.95824 23.9176 12.7451 23.9176Z" fill="#F5F5F5"/>
<path d="M5.78318 14.324C5.5248 13.58 5.37527 12.7826 5.37527 11.9589C5.37527 11.135 5.5248 10.3378 5.76959 9.59366L5.76274 9.43519L1.93746 6.53247L1.8123 6.59064C0.982805 8.21174 0.506836 10.0322 0.506836 11.9589C0.506836 13.8855 0.982805 15.7059 1.8123 17.327L5.78318 14.324Z" fill="#F5F5F5"/>
<path d="M12.7451 4.62427C15.0433 4.62427 16.5936 5.59426 17.4775 6.40485L20.9316 3.10953C18.8103 1.18284 16.0496 0.000244141 12.7451 0.000244141C7.95824 0.000244141 3.82415 2.6843 1.81152 6.59081L5.7688 9.59383C6.76162 6.71044 9.50859 4.62427 12.7451 4.62427Z" fill="#F5F5F5"/>
</g>
<defs>
<clipPath id="clip0_1_1407">
<rect width="24" height="24" fill="white" transform="translate(0.506836 0.000244141)"/>
</clipPath>
</defs>
</svg>
