<svg width="25" height="25" viewBox="0 0 25 25" fill="none" xmlns="http://www.w3.org/2000/svg">
<path d="M5.60254 10.2499C5.6013 9.36045 5.77612 8.47951 6.11693 7.6579C6.45774 6.83628 6.95779 6.09025 7.58827 5.4628C8.21875 4.83535 8.96718 4.33889 9.79042 4.00204C10.6137 3.66519 11.4954 3.49461 12.3849 3.50013C16.0964 3.52772 19.0652 6.61275 19.0652 10.3347V10.9999C19.0652 14.3577 19.7677 16.3061 20.3864 17.371C20.4531 17.4848 20.4885 17.6142 20.4893 17.746C20.49 17.8779 20.4559 18.0076 20.3904 18.1221C20.325 18.2366 20.2305 18.3318 20.1166 18.3982C20.0026 18.4645 19.8732 18.4996 19.7413 18.4999H4.92572C4.79383 18.4996 4.66437 18.4645 4.55038 18.3981C4.4364 18.3318 4.34193 18.2366 4.27651 18.122C4.21108 18.0075 4.17702 17.8778 4.17775 17.7459C4.17847 17.614 4.21397 17.4846 4.28066 17.3709C4.89972 16.3059 5.60253 14.3575 5.60253 10.9999L5.60254 10.2499Z" stroke="#DEDEDE" stroke-width="2" stroke-linecap="round" stroke-linejoin="round"/>
<path d="M9.3335 18.5V19.25C9.3335 20.0456 9.64957 20.8087 10.2122 21.3713C10.7748 21.9339 11.5378 22.25 12.3335 22.25C13.1291 22.25 13.8922 21.9339 14.4548 21.3713C15.0174 20.8087 15.3335 20.0456 15.3335 19.25V18.5" stroke="#DEDEDE" stroke-width="2" stroke-linecap="round" stroke-linejoin="round"/>
</svg>
