<svg width="24" height="24" viewBox="0 0 24 24" fill="none" xmlns="http://www.w3.org/2000/svg">
<path d="M24 2.82353C23.1166 3.31765 22.1644 3.64235 21.1778 3.79765C22.1874 3.04941 22.9675 1.86353 23.3346 0.437647C22.3824 1.14353 21.327 1.63765 20.2141 1.92C19.3078 0.705883 18.0344 0 16.5889 0C13.8929 0 11.6902 2.71059 11.6902 6.05647C11.6902 6.53647 11.7361 7.00235 11.8164 7.44C7.73231 7.18588 4.0956 4.77176 1.67495 1.11529C1.25048 2.00471 1.00956 3.04941 1.00956 4.15059C1.00956 6.25412 1.86998 8.11765 3.20077 9.17647C2.38623 9.17647 1.62906 8.89412 0.963671 8.47059V8.51294C0.963671 11.4494 2.66157 13.9059 4.91013 14.4565C4.18822 14.6996 3.43032 14.7334 2.69599 14.5553C3.00758 15.7588 3.61782 16.8119 4.44094 17.5665C5.26405 18.3211 6.25864 18.7393 7.2849 18.7624C5.54527 20.4571 3.38891 21.3732 1.17017 21.36C0.780115 21.36 0.390057 21.3318 0 21.2753C2.17973 22.9976 4.77247 24 7.54876 24C16.5889 24 21.5564 14.7671 21.5564 6.76235C21.5564 6.49412 21.5564 6.24 21.5449 5.97176C22.5086 5.12471 23.3346 4.05176 24 2.82353Z" fill="#2B2B2B"/>
</svg>
