<svg width="28" height="28" viewBox="0 0 28 28" fill="none" xmlns="http://www.w3.org/2000/svg">
<path fill-rule="evenodd" clip-rule="evenodd" d="M14.12 0.666748C6.75595 0.666748 0.786621 6.63608 0.786621 14.0001C0.786621 21.3641 6.75595 27.3334 14.12 27.3334C21.484 27.3334 27.4533 21.3641 27.4533 14.0001C27.4533 6.63608 21.484 0.666748 14.12 0.666748ZM9.45329 9.33341C9.45329 8.72058 9.57399 8.11374 9.80852 7.54756C10.043 6.98137 10.3868 6.46692 10.8201 6.03358C11.2535 5.60024 11.7679 5.2565 12.3341 5.02198C12.9003 4.78746 13.5071 4.66675 14.12 4.66675C14.7328 4.66675 15.3396 4.78746 15.9058 5.02198C16.472 5.2565 16.9864 5.60024 17.4198 6.03358C17.8531 6.46692 18.1969 6.98137 18.4314 7.54756C18.6659 8.11374 18.7866 8.72058 18.7866 9.33341C18.7866 10.5711 18.295 11.7581 17.4198 12.6332C16.5446 13.5084 15.3576 14.0001 14.12 14.0001C12.8823 14.0001 11.6953 13.5084 10.8201 12.6332C9.94495 11.7581 9.45329 10.5711 9.45329 9.33341ZM5.15729 19.7867C7.35595 17.9894 10.5666 16.6667 14.12 16.6667C17.6733 16.6667 20.884 17.9894 23.0826 19.7867C22.1161 21.2849 20.7892 22.5167 19.2234 23.3693C17.6575 24.2218 15.9028 24.6679 14.12 24.6667C12.3371 24.6679 10.5824 24.2218 9.01654 23.3693C7.45071 22.5167 6.12379 21.2849 5.15729 19.7867Z" fill="#F5F5F5" stroke="#2B2B2B"/>
</svg>
